<svg width="32" height="26" xmlns="http://www.w3.org/2000/svg">
 <style type="text/css">.st0{fill:#DD0031;}
	.st1{fill:#C3002F;}
	.st2{fill:#FFFFFF;}</style>

 <g>
  <title>background</title>
  <rect fill="none" id="canvas_background" height="28" width="34" y="-1" x="-1"/>
 </g>
 <g>
  <title>Layer 1</title>
  <g stroke="null" id="svg_1">
   <polygon stroke="null" id="svg_2" points="16.093746602535248,-0.018933502957224846 16.093746602535248,-0.018933502957224846 16.093746602535248,-0.018933502957224846 4.025000512599945,4.284856796264648 5.865778863430023,20.242576599121094 16.093746602535248,25.907501220703125 16.093746602535248,25.907501220703125 16.093746602535248,25.907501220703125 26.32172054052353,20.242576599121094 28.16250079870224,4.284856796264648 " class="st0"/>
   <polygon stroke="null" id="svg_3" points="16.093746602535248,-0.018933502957224846 16.093746602535248,2.858898162841797 16.093746602535248,2.8459389209747314 16.093746602535248,15.977675437927246 16.093746602535248,15.977675437927246 16.093746602535248,25.907501220703125 16.093746602535248,25.907501220703125 26.32172054052353,20.242576599121094 28.16250079870224,4.284856796264648 16.093746602535248,-0.018933502957224846 " class="st1"/>
   <path stroke="null" id="svg_4" d="m16.093753,2.845936l-7.544591,16.916995l0,0l2.813018,0l0,0l1.516696,-3.785259l6.403828,0l1.516696,3.785259l0,0l2.813018,0l0,0l-7.518664,-16.916995l0,0l0,0l0,0l0,0zm2.203746,10.798358l-4.407493,0l2.203746,-5.301955l2.203746,5.301955z" class="st2"/>
  </g>
 </g>
</svg>